<svg xmlns="http://www.w3.org/2000/svg"  viewBox="0 0 100 100" width="100px" height="100px"><path fill="#c7ede6" d="M87.215,56.71C88.35,54.555,89,52.105,89,49.5c0-6.621-4.159-12.257-10.001-14.478 C78.999,35.015,79,35.008,79,35c0-11.598-9.402-21-21-21c-9.784,0-17.981,6.701-20.313,15.757C36.211,29.272,34.638,29,33,29 c-7.692,0-14.023,5.793-14.89,13.252C12.906,43.353,9,47.969,9,53.5C9,59.851,14.149,65,20.5,65c0.177,0,0.352-0.012,0.526-0.022 C21.022,65.153,21,65.324,21,65.5C21,76.822,30.178,86,41.5,86c6.437,0,12.175-2.972,15.934-7.614C59.612,80.611,62.64,82,66,82 c4.65,0,8.674-2.65,10.666-6.518C77.718,75.817,78.837,76,80,76c6.075,0,11-4.925,11-11C91,61.689,89.53,58.727,87.215,56.71z"/><path fill="#fdfcef" d="M77.875,60.5c0,0,4.64,0,7.125,0s4.5-2.015,4.5-4.5c0-2.333-1.782-4.229-4.055-4.455 C85.467,51.364,85.5,51.187,85.5,51c0-2.485-2.015-4.5-4.5-4.5c-1.438,0-2.703,0.686-3.527,1.736 C77.333,45.6,75.171,43.5,72.5,43.5c-2.761,0-5,2.239-5,5c0,0.446,0.077,0.87,0.187,1.282C67.045,49.005,66.086,48.5,65,48.5 c-1.781,0-3.234,1.335-3.455,3.055C61.364,51.533,61.187,51.5,61,51.5c-2.485,0-4.5,2.015-4.5,4.5s2.015,4.5,4.5,4.5s9.5,0,9.5,0 H77.875z"/><path fill="#472b29" d="M72.5,43c-3.033,0-5.5,2.467-5.5,5.5c0,0.016,0,0.031,0,0.047C66.398,48.192,65.71,48,65,48 c-1.831,0-3.411,1.261-3.858,3.005C61.095,51.002,61.048,51,61,51c-2.757,0-5,2.243-5,5s2.243,5,5,5h15.5 c0.276,0,0.5-0.224,0.5-0.5S76.776,60,76.5,60H61c-2.206,0-4-1.794-4-4s1.794-4,4-4c0.117,0,0.23,0.017,0.343,0.032l0.141,0.019 c0.021,0.003,0.041,0.004,0.062,0.004c0.246,0,0.462-0.185,0.495-0.437C62.232,50.125,63.504,49,65,49 c0.885,0,1.723,0.401,2.301,1.1c0.098,0.118,0.241,0.182,0.386,0.182c0.078,0,0.156-0.018,0.228-0.056 c0.209-0.107,0.314-0.346,0.254-0.573C68.054,49.218,68,48.852,68,48.5c0-2.481,2.019-4.5,4.5-4.5c2.381,0,4.347,1.872,4.474,4.263 c0.011,0.208,0.15,0.387,0.349,0.45c0.05,0.016,0.101,0.024,0.152,0.024c0.15,0,0.296-0.069,0.392-0.192 C78.638,47.563,79.779,47,81,47c2.206,0,4,1.794,4,4c0,0.117-0.017,0.23-0.032,0.343l-0.019,0.141 c-0.016,0.134,0.022,0.268,0.106,0.373s0.207,0.172,0.34,0.185C87.451,52.247,89,53.949,89,56c0,2.206-1.794,4-4,4h-5.5 c-0.276,0-0.5,0.224-0.5,0.5s0.224,0.5,0.5,0.5H85c2.757,0,5-2.243,5-5c0-2.397-1.689-4.413-4.003-4.877 C85.999,51.082,86,51.041,86,51c0-2.757-2.243-5-5-5c-1.176,0-2.293,0.416-3.183,1.164C77.219,44.76,75.055,43,72.5,43L72.5,43z"/><path fill="#472b29" d="M71 50c-1.403 0-2.609.999-2.913 2.341C67.72 52.119 67.301 52 66.875 52c-1.202 0-2.198.897-2.353 2.068C64.319 54.022 64.126 54 63.937 54c-1.529 0-2.811 1.2-2.918 2.732C61.01 56.87 61.114 56.99 61.251 57c.006 0 .012 0 .018 0 .13 0 .24-.101.249-.232.089-1.271 1.151-2.268 2.419-2.268.229 0 .47.042.738.127.022.007.045.01.067.01.055 0 .11-.02.156-.054C64.962 54.537 65 54.455 65 54.375c0-1.034.841-1.875 1.875-1.875.447 0 .885.168 1.231.473.047.041.106.063.165.063.032 0 .063-.006.093-.019.088-.035.148-.117.155-.212C68.623 51.512 69.712 50.5 71 50.5c.208 0 .425.034.682.107.023.007.047.01.07.01.109 0 .207-.073.239-.182.038-.133-.039-.271-.172-.309C71.517 50.04 71.256 50 71 50L71 50zM84.883 51.5c-1.326 0-2.508.897-2.874 2.182-.038.133.039.271.172.309C82.205 53.997 82.228 54 82.25 54c.109 0 .209-.072.24-.182C82.795 52.748 83.779 52 84.883 52c.117 0 .23.014.342.029.012.002.023.003.035.003.121 0 .229-.092.246-.217.019-.137-.077-.263-.214-.281C85.158 51.516 85.022 51.5 84.883 51.5L84.883 51.5z"/><path fill="#fff" d="M15.5 51h-10C5.224 51 5 50.776 5 50.5S5.224 50 5.5 50h10c.276 0 .5.224.5.5S15.777 51 15.5 51zM18.5 51h-1c-.276 0-.5-.224-.5-.5s.224-.5.5-.5h1c.276 0 .5.224.5.5S18.777 51 18.5 51zM23.491 53H14.5c-.276 0-.5-.224-.5-.5s.224-.5.5-.5h8.991c.276 0 .5.224.5.5S23.767 53 23.491 53zM12.5 53h-1c-.276 0-.5-.224-.5-.5s.224-.5.5-.5h1c.276 0 .5.224.5.5S12.777 53 12.5 53zM9.5 53h-2C7.224 53 7 52.776 7 52.5S7.224 52 7.5 52h2c.276 0 .5.224.5.5S9.777 53 9.5 53zM15.5 55h-2c-.276 0-.5-.224-.5-.5s.224-.5.5-.5h2c.276 0 .5.224.5.5S15.776 55 15.5 55zM18.5 46c-.177 0-.823 0-1 0-.276 0-.5.224-.5.5s.224.5.5.5c.177 0 .823 0 1 0 .276 0 .5-.224.5-.5S18.776 46 18.5 46zM18.5 48c-.177 0-4.823 0-5 0-.276 0-.5.224-.5.5s.224.5.5.5c.177 0 4.823 0 5 0 .276 0 .5-.224.5-.5S18.776 48 18.5 48zM23.5 50c-.177 0-2.823 0-3 0-.276 0-.5.224-.5.5s.224.5.5.5c.177 0 2.823 0 3 0 .276 0 .5-.224.5-.5S23.776 50 23.5 50z"/><g><path fill="#fff" d="M72.5 24h-10c-.276 0-.5-.224-.5-.5s.224-.5.5-.5h10c.276 0 .5.224.5.5S72.776 24 72.5 24zM76.5 24h-2c-.276 0-.5-.224-.5-.5s.224-.5.5-.5h2c.276 0 .5.224.5.5S76.776 24 76.5 24zM81.5 26h-10c-.276 0-.5-.224-.5-.5s.224-.5.5-.5h10c.276 0 .5.224.5.5S81.777 26 81.5 26zM69.5 26h-1c-.276 0-.5-.224-.5-.5s.224-.5.5-.5h1c.276 0 .5.224.5.5S69.776 26 69.5 26zM66.47 26H64.5c-.276 0-.5-.224-.5-.5s.224-.5.5-.5h1.97c.276 0 .5.224.5.5S66.746 26 66.47 26zM75.5 22h-5c-.276 0-.5-.224-.5-.5s.224-.5.5-.5h5c.276 0 .5.224.5.5S75.777 22 75.5 22zM72.5 28h-2c-.276 0-.5-.224-.5-.5s.224-.5.5-.5h2c.276 0 .5.224.5.5S72.776 28 72.5 28z"/></g><g><path fill="#88ae45" d="M52 27A23 23 0 1 0 52 73A23 23 0 1 0 52 27Z"/><path fill="#472b29" d="M51.999,27.4C64.461,27.4,74.6,37.538,74.6,49.999C74.6,62.461,64.461,72.6,51.999,72.6 C39.538,72.6,29.4,62.462,29.4,50S39.538,27.4,51.999,27.4 M51.999,26C38.765,26,28,36.766,28,50s10.765,24,23.999,24 S76,63.233,76,49.999S65.234,26,51.999,26L51.999,26z"/><path fill="#fdfcef" d="M52 30.375A19.625 19.625 0 1 0 52 69.625A19.625 19.625 0 1 0 52 30.375Z"/><path fill="#472b29" d="M71.818,47.457c-0.026-0.206-0.214-0.351-0.419-0.325c-0.206,0.026-0.351,0.214-0.325,0.419 c0.762,5.973-1.229,11.827-5.463,16.06c-7.505,7.505-19.718,7.505-27.224,0c-7.505-7.505-7.505-19.718,0-27.224 s19.718-7.505,27.224,0c0.864,0.864,1.641,1.82,2.375,2.923c0.115,0.172,0.348,0.219,0.52,0.104 c0.173-0.113,0.219-0.348,0.104-0.52c-0.762-1.145-1.57-2.138-2.469-3.037c-7.798-7.798-20.486-7.798-28.284,0 s-7.798,20.486,0,28.284s20.486,7.798,28.284,0C70.541,59.743,72.61,53.662,71.818,47.457z"/><path fill="#472b29" d="M69.982,43.162c0.073,0.193,0.29,0.291,0.483,0.218c0.192-0.073,0.292-0.289,0.218-0.483 c-0.271-0.716-0.625-1.479-1.081-2.335c-0.098-0.183-0.325-0.252-0.508-0.155c-0.034,0.018-0.063,0.04-0.089,0.066 c-0.114,0.114-0.145,0.292-0.066,0.442C69.381,41.741,69.722,42.477,69.982,43.162z"/></g><g><path fill="#fdfcef" d="M36.5,73.5c0,0,1.567,0,3.5,0s3.5-1.567,3.5-3.5c0-1.781-1.335-3.234-3.055-3.455 C40.473,66.366,40.5,66.187,40.5,66c0-1.933-1.567-3.5-3.5-3.5c-1.032,0-1.95,0.455-2.59,1.165 c-0.384-1.808-1.987-3.165-3.91-3.165c-2.209,0-4,1.791-4,4c0,0.191,0.03,0.374,0.056,0.558C26.128,64.714,25.592,64.5,25,64.5 c-1.228,0-2.245,0.887-2.455,2.055C22.366,66.527,22.187,66.5,22,66.5c-1.933,0-3.5,1.567-3.5,3.5s1.567,3.5,3.5,3.5s7.5,0,7.5,0"/><path fill="#472b29" d="M38.25 69C38.112 69 38 68.888 38 68.75c0-1.223.995-2.218 2.218-2.218.034.009.737-.001 1.244.136.133.036.212.173.176.306-.036.134-.173.213-.306.176-.444-.12-1.1-.12-1.113-.118-.948 0-1.719.771-1.719 1.718C38.5 68.888 38.388 69 38.25 69zM31.5 73A.5.5 0 1 0 31.5 74 .5.5 0 1 0 31.5 73z"/><path fill="#472b29" d="M40,74h-3.5c-0.276,0-0.5-0.224-0.5-0.5s0.224-0.5,0.5-0.5H40c1.654,0,3-1.346,3-3 c0-1.496-1.125-2.768-2.618-2.959c-0.134-0.018-0.255-0.088-0.336-0.196s-0.115-0.244-0.094-0.377C39.975,66.314,40,66.16,40,66 c0-1.654-1.346-3-3-3c-0.85,0-1.638,0.355-2.219,1c-0.125,0.139-0.321,0.198-0.5,0.148c-0.182-0.049-0.321-0.195-0.36-0.379 C33.58,62.165,32.141,61,30.5,61c-1.93,0-3.5,1.57-3.5,3.5c0,0.143,0.021,0.28,0.041,0.418c0.029,0.203-0.063,0.438-0.242,0.54 s-0.396,0.118-0.556-0.01C25.878,65.155,25.449,65,25,65c-0.966,0-1.792,0.691-1.963,1.644c-0.048,0.267-0.296,0.446-0.569,0.405 C22.314,67.025,22.16,67,22,67c-1.654,0-3,1.346-3,3s1.346,3,3,3h7.5c0.276,0,0.5,0.224,0.5,0.5S29.776,74,29.5,74H22 c-2.206,0-4-1.794-4-4s1.794-4,4-4c0.059,0,0.116,0.002,0.174,0.006C22.588,64.82,23.711,64,25,64c0.349,0,0.689,0.061,1.011,0.18 C26.176,61.847,28.126,60,30.5,60c1.831,0,3.466,1.127,4.153,2.774C35.333,62.276,36.155,62,37,62c2.206,0,4,1.794,4,4 c0,0.048-0.001,0.095-0.004,0.142C42.739,66.59,44,68.169,44,70C44,72.206,42.206,74,40,74z"/><path fill="#472b29" d="M34.5,73c-0.159,0-0.841,0-1,0c-0.276,0-0.5,0.224-0.5,0.5s0.224,0.5,0.5,0.5c0.159,0,0.841,0,1,0 c0.276,0,0.5-0.224,0.5-0.5S34.776,73,34.5,73z"/></g><g><path fill="#88ae45" d="M41.763,51.237l7,7c0.331,0.331,0.77,0.513,1.237,0.513c0.512-0.011,0.969-0.217,1.29-0.567l11-12 c0.316-0.345,0.479-0.792,0.458-1.259c-0.02-0.467-0.221-0.898-0.566-1.214c-0.324-0.297-0.744-0.46-1.183-0.46 c-0.49,0-0.96,0.207-1.29,0.568L50.12,54.279l-0.176,0.193l-0.185-0.185l-5.523-5.523c-0.33-0.331-0.77-0.513-1.237-0.513 s-0.907,0.182-1.237,0.513c-0.331,0.331-0.513,0.77-0.513,1.237S41.432,50.907,41.763,51.237z"/><path fill="#472b29" d="M61,43.75L61,43.75c0.313,0,0.613,0.117,0.845,0.329c0.246,0.225,0.389,0.533,0.404,0.867 c0.014,0.334-0.102,0.653-0.328,0.899l-11,12c-0.229,0.25-0.555,0.398-0.921,0.405c-0.334,0-0.648-0.13-0.884-0.366l-7-7 C41.88,50.648,41.75,50.334,41.75,50s0.13-0.648,0.367-0.884C42.352,48.88,42.666,48.75,43,48.75s0.648,0.13,0.884,0.366 l5.523,5.523l0.554,0.554l0.529-0.577l9.589-10.461C60.318,43.894,60.645,43.75,61,43.75 M61,43c-0.541,0-1.08,0.218-1.474,0.649 l-9.589,10.46l-5.523-5.523C44.024,48.195,43.512,48,43,48s-1.024,0.195-1.414,0.586c-0.781,0.781-0.781,2.047,0,2.828l7,7 C48.961,58.79,49.47,59,50,59c0.015,0,0.029,0,0.043,0c0.545-0.012,1.062-0.246,1.431-0.648l11-12 c0.747-0.814,0.691-2.08-0.123-2.826C61.967,43.174,61.483,43,61,43L61,43z"/></g></svg>